<svg xmlns="http://www.w3.org/2000/svg" viewBox="0 0 346.89 362.98">
    <defs>
        <g id="buy_icon">
            <path class="cls-1" d="M0,0V363H346.89V0ZM173.45,322.18a139.3,139.3,0,1,1,139.3-139.3A139.3,139.3,0,0,1,173.45,322.18Z"/>
            <path class="cls-1" d="M233,215.55H156.09a19.79,19.79,0,0,1-16.19-8.41l-42.18-60a19.79,19.79,0,0,1,16.19-31.17H233a19.79,19.79,0,0,1,19.79,19.79v60A19.79,19.79,0,0,1,233,215.55Z"/>
            <circle class="cls-1" cx="116" cy="257.44" r="21.92"/>
            <circle class="cls-1" cx="230.89" cy="257.44" r="21.92"/>
        </g>
        <g id="service_icon">
            <path class="cls-1" d="M0,0V363H346.89V0ZM180.23,322.18a139.3,139.3,0,1,1,139.3-139.3A139.3,139.3,0,0,1,180.23,322.18Z"/>
            <path class="cls-1" d="M242.75,142.61,227.67,157.7a15.67,15.67,0,0,1-22.16,0h0a15.67,15.67,0,0,1,0-22.16l15.08-15.08a15.67,15.67,0,0,0,0-22.16l-.12-.12a15.67,15.67,0,0,0-22.16,0L161,135.54a15.67,15.67,0,0,0,0,22.16h0a15.67,15.67,0,0,1,0,22.16l-46.43,46.43a15.67,15.67,0,0,0,0,22.16l.12.12a15.67,15.67,0,0,0,22.16,0l46.43-46.43a15.67,15.67,0,0,1,22.16,0l.12.12a15.67,15.67,0,0,0,22.16,0L265,164.89a15.67,15.67,0,0,0,0-22.16l-.12-.12A15.67,15.67,0,0,0,242.75,142.61Z"/>
        </g>
        <g id ="unexist_icon">
            <path class="cls-1" d="M0,0V363H346.89V0ZM180.23,322.18a139.3,139.3,0,1,1,139.3-139.3A139.3,139.3,0,0,1,180.23,322.18Z"/>
        </g>
    </defs>
</svg>