<svg xmlns="http://www.w3.org/2000/svg">
    <defs>
        <g id="header">
            <rect class="cls-1" x="8.39" y="8.39" width="40.5" height="40.5" transform="translate(28.64 -11.86) rotate(45)"/>
            <rect class="cls-1" x="65.47" y="8.39" width="40.5" height="40.5" transform="translate(45.36 -52.23) rotate(45)"/>
            <rect class="cls-1" x="122.8" y="8.39" width="40.5" height="40.5" transform="translate(62.15 -92.77) rotate(45)"/>
            <path class="cls-1" d="M201.24,22.76h21.09C221.6,16.19,217,11,208.75,11a27.19,27.19,0,0,0-10,2l-2.19-8.25A33.8,33.8,0,0,1,209.63,2c17.3,0,24.67,11.82,24.67,25.47,0,16.57-11.24,25.33-25.69,25.33A33.77,33.77,0,0,1,196,50.5l1.9-8.54a28.61,28.61,0,0,0,9.85,1.75c8.39,0,13.65-5.11,14.52-12.26h-21Z"/>
            <path class="cls-1" d="M250.5,12.18H237.29V2.84h37.8v9.34H261.67V52H250.5Z"/>
            <path class="cls-1" d="M291.23,2.84v14.6c0,7.88-.15,15.69-.58,22.26h.29c2.55-5.77,5.84-12.26,8.76-17.52L310.28,2.84h11.39V52H311.45V37.51a204.1,204.1,0,0,1,.8-20.73H312a143.46,143.46,0,0,1-8.32,17.52L293.71,52H281V2.84Z"/>
            <path class="cls-1" d="M346.12,3.49a88.68,88.68,0,0,1,14.38-1c6.79,0,10.95.66,14.52,2.77a10.71,10.71,0,0,1,5.91,9.63c0,4.38-2.55,8.47-8.1,10.51v.15c5.62,1.53,9.78,5.77,9.78,12.12a13.11,13.11,0,0,1-5.11,10.44c-3.58,2.85-9.56,4.45-19.34,4.45a86.12,86.12,0,0,1-12-.73Zm11,18.83h3.65c5.84,0,9-2.41,9-6.06s-2.85-5.69-7.88-5.69a30.38,30.38,0,0,0-4.74.29Zm0,21.82a35.1,35.1,0,0,0,4.31.15c5,0,9.49-1.9,9.49-7.08,0-5-4.45-6.93-10-6.93h-3.8Z"/>
            <path class="cls-1" d="M401.44,39.4,397.94,52H386.41l15-49.19H416L431.29,52h-12L415.53,39.4Zm12.48-8.32-3.07-10.44c-.87-2.92-1.75-6.57-2.48-9.49h-.15c-.73,2.92-1.46,6.64-2.26,9.49L403,31.08Z"/>
            <path class="cls-1" d="M448.81,2.84V42.91h12.12V2.84H471.8V42.91H484V2.84h10.87V52h-57V2.84Z"/>
            <path class="cls-1" d="M514.72,2.84v14.6c0,7.88-.15,15.69-.58,22.26h.29c2.55-5.77,5.84-12.26,8.76-17.52L533.77,2.84h11.39V52H534.94V37.51a204.1,204.1,0,0,1,.8-20.73h-.22a143.46,143.46,0,0,1-8.32,17.52L517.2,52H504.5V2.84Z"/>
            <path class="cls-1" d="M611.21,33.2c-.22-5.91-.44-13.06-.44-20.22h-.22C609,19.26,607,26.27,605.08,32l-6,19.19h-8.68l-5.25-19c-1.61-5.77-3.28-12.77-4.45-19.19h-.15c-.29,6.64-.51,14.23-.88,20.36L578.8,52H568.51l3.14-49.19h14.82l4.82,16.42c1.53,5.69,3.06,11.82,4.16,17.59h.22c1.39-5.69,3.06-12.19,4.67-17.66l5.25-16.35h14.52L622.81,52H611.94Z"/>
            <path class="cls-1" d="M676,26.92c0,16.13-9.78,25.91-24.16,25.91-14.6,0-23.14-11-23.14-25C628.73,13.06,638.14,2,652.67,2,667.78,2,676,13.35,676,26.92Zm-35.54.66c0,9.63,4.52,16.42,12,16.42s11.82-7.15,11.82-16.71c0-8.83-4.23-16.42-11.9-16.42S640.48,18,640.48,27.58Z"/>
            <path class="cls-1" d="M724.56,33.2c-.22-5.91-.44-13.06-.44-20.22h-.22c-1.53,6.28-3.58,13.28-5.47,19l-6,19.19h-8.68l-5.25-19c-1.61-5.77-3.28-12.77-4.45-19.19h-.15c-.29,6.64-.51,14.23-.88,20.36L692.16,52H681.87L685,2.84h14.82l4.82,16.42c1.53,5.69,3.06,11.82,4.16,17.59H709c1.39-5.69,3.06-12.19,4.67-17.66l5.25-16.35h14.52L736.16,52H725.29Z"/>
            <path class="cls-1" d="M747.12,22.76h21.09C767.48,16.19,762.88,11,754.63,11a27.19,27.19,0,0,0-10,2l-2.19-8.25A33.8,33.8,0,0,1,755.51,2c17.3,0,24.67,11.82,24.67,25.47,0,16.57-11.24,25.33-25.69,25.33a33.77,33.77,0,0,1-12.63-2.34l1.9-8.54a28.61,28.61,0,0,0,9.85,1.75c8.39,0,13.65-5.11,14.52-12.26h-21Z"/>
            <path class="cls-1" d="M798.72,2.84v18.9H817V2.84h11.09V52H817V31.45H798.72V52H787.55V2.84Z"/>
            <path class="cls-1" d="M847.33,12.18H834.12V2.84h37.8v9.34H858.5V52H847.33Z"/>
            <path class="cls-1" d="M888.93,2.84V20a39.65,39.65,0,0,1,5.47-.44c10.14,0,19.49,5,19.49,16.13A14.8,14.8,0,0,1,910,46.26c-4.74,4.82-13,6.28-20.22,6.28a85.32,85.32,0,0,1-11.9-.73v-49Zm-.07,41.09a18.2,18.2,0,0,0,3.8.29c4.89,0,9.56-2.85,9.56-8.25,0-5.62-5.18-7.88-9.42-7.88a29.11,29.11,0,0,0-3.94.29ZM929.51,2.84V52H918.42V2.84Z"/>
            <polygon class="cls-1" points="1000.59 28.64 954.05 1.77 954.05 55.51 1000.59 28.64"/>
        </g>
    </defs>
</svg>