<svg xmlns="http://www.w3.org/2000/svg" viewBox="0 0 409.91 150">
    <defs>
        <style>.cls-1{fill:#08caa9;}.cls-2{fill:#fff;}</style>
    </defs>
    <title>logo</title>
    <g id="logo">
        <circle class="cls-1" cx="68.08" cy="75" r="10"/>
        <circle class="cls-1" cx="68.08" cy="75" r="25"/>
        <path class="cls-1" d="M3,79H25.63V71H3c-1.65,0-3,1.79-3,4H0C0,77.21,1.34,79,3,79Z"/>
        <path class="cls-1" d="M19.23,31.8l16,16,5.66-5.66-16-16c-1.17-1.17-3.38-.85-4.94.71h0C18.38,28.42,18.06,30.63,19.23,31.8Z"/>
        <path class="cls-1" d="M24.89,123.85l16-16-5.66-5.66-16,16c-1.17,1.17-.85,3.38.71,4.94h0C21.5,124.7,23.72,125,24.89,123.85Z"/>
        <circle class="cls-1" cx="341.83" cy="75" r="10"/>
        <circle class="cls-1" cx="341.83" cy="75" r="25"/>
        <path class="cls-1" d="M406.92,79H384.29V71h22.63c1.65,0,3,1.79,3,4h0C409.91,77.21,408.57,79,406.92,79Z"/>
        <path class="cls-1" d="M390.68,31.8l-16,16L369,42.15l16-16c1.17-1.17,3.38-.85,4.94.71h0C391.53,28.42,391.85,30.63,390.68,31.8Z"/>
        <path class="cls-1" d="M385,123.85l-16-16,5.66-5.66,16,16c1.17,1.17.85,3.38-.71,4.94h0C388.41,124.7,386.2,125,385,123.85Z"/>
        <path class="cls-1" d="M358.33,150H51.58c-8.42,0-9.39-5.49-3.82-13.15a106.15,106.15,0,0,0,0-123.71C42.19,5.49,43.16,0,51.58,0H358.33c8.42,0,9.39,5.49,3.82,13.15a106.15,106.15,0,0,0,0,123.71C367.72,144.51,366.76,150,358.33,150Z"/>
        <path class="cls-2" d="M93.85,58.14a11.55,11.55,0,0,1-4.73-3.24A8.83,8.83,0,0,1,87,50.09V50a.89.89,0,0,1,.34-.71,1.14,1.14,0,0,1,.76-.29h2.61a1,1,0,0,1,.76.23,2.81,2.81,0,0,1,.5.86,5.92,5.92,0,0,0,2.72,3.55A10.64,10.64,0,0,0,100.46,55a8.22,8.22,0,0,0,6.77-3q2.43-3,2.43-8.29v-1.2H96.8a1.12,1.12,0,0,1-.86-.37,1.26,1.26,0,0,1-.34-.89V39.58a1.26,1.26,0,0,1,.34-.89,1.13,1.13,0,0,1,.86-.37h12.86v-1q0-5.75-2.35-8.55a8.44,8.44,0,0,0-6.85-2.8,10.48,10.48,0,0,0-5.75,1.38A6,6,0,0,0,92,30.91a1.66,1.66,0,0,1-.42.81,1.14,1.14,0,0,1-.78.24H88.18a1.16,1.16,0,0,1-.81-.31.88.88,0,0,1-.29-.78,9.24,9.24,0,0,1,4.16-6.69,16,16,0,0,1,9.28-2.51q6.32,0,10.11,3.79t4,11.89q.1,2.4.1,3.19t-.1,3.08q-.21,8.1-4,11.89t-10.14,3.79A18.25,18.25,0,0,1,93.85,58.14Z"/>
        <path class="cls-2" d="M129.19,58.43a1.17,1.17,0,0,1-.34-.86v-22H119.7a1.22,1.22,0,0,1-.86-.31,1.08,1.08,0,0,1-.34-.84V32.79a1.16,1.16,0,0,1,1.2-1.2h22.95a1.09,1.09,0,0,1,.84.34,1.22,1.22,0,0,1,.31.86v1.67a1.08,1.08,0,0,1-1.15,1.15H133.5v22a1.16,1.16,0,0,1-1.2,1.2h-2.25A1.17,1.17,0,0,1,129.19,58.43Z"/>
        <path class="cls-2" d="M172.13,31.9a.94.94,0,0,1,.37.73V57.57a1.16,1.16,0,0,1-1.2,1.2H169a1.16,1.16,0,0,1-1.2-1.2V38.43L153.15,58a1.66,1.66,0,0,1-1.36.79h-2.25a1.17,1.17,0,0,1-1.1-1.1V32.79a1.16,1.16,0,0,1,1.2-1.2H152a1.16,1.16,0,0,1,1.2,1.2V51.92l14.64-19.55a1.66,1.66,0,0,1,1.36-.78h2.2A1.19,1.19,0,0,1,172.13,31.9Z"/>
        <path class="cls-2" d="M194,58.43a1.22,1.22,0,0,1-.31-.86V23.43a1.3,1.3,0,0,1,.31-.91,1.08,1.08,0,0,1,.84-.34h14.27q5.54,0,8.36,2.67a9.12,9.12,0,0,1,2.82,7,8.31,8.31,0,0,1-4.55,7.74,9.61,9.61,0,0,1,5.28,8.68,10.8,10.8,0,0,1-1.33,5.33,9.59,9.59,0,0,1-3.95,3.82,12.9,12.9,0,0,1-6.22,1.41H194.87A1.08,1.08,0,0,1,194,58.43ZM208.35,37.7a7.68,7.68,0,0,0,5.18-1.54,5.41,5.41,0,0,0,1.78-4.31,5,5,0,0,0-1.75-4.13,8.16,8.16,0,0,0-5.2-1.41h-9.72V37.7Zm.52,16.94a7.34,7.34,0,0,0,5.25-1.8,6.59,6.59,0,0,0,0-9.28,7.41,7.41,0,0,0-5.25-1.78H198.63V54.64Z"/>
        <path class="cls-2" d="M230.7,58.25a8.83,8.83,0,0,1-3.45-2.85,6.75,6.75,0,0,1-1.28-4,6.84,6.84,0,0,1,2.82-5.65,16.3,16.3,0,0,1,7.68-2.93l7.84-1.1V40.21q0-5.38-6.22-5.38a6.91,6.91,0,0,0-3.87,1,6.15,6.15,0,0,0-2.14,2.27,1.7,1.7,0,0,1-.44.71A1,1,0,0,1,231,39h-2a1.16,1.16,0,0,1-1.15-1.15,5.1,5.1,0,0,1,1.12-2.8,9.12,9.12,0,0,1,3.48-2.77,12.76,12.76,0,0,1,5.75-1.18q5.85,0,8.39,2.72a9.58,9.58,0,0,1,2.54,6.8v17a1.16,1.16,0,0,1-1.2,1.2h-2.3a1.08,1.08,0,0,1-.84-.34,1.22,1.22,0,0,1-.31-.86v-2.3a8.84,8.84,0,0,1-3.35,2.88,12.14,12.14,0,0,1-5.65,1.15A10.75,10.75,0,0,1,230.7,58.25Zm11.42-5q2.2-2.25,2.2-6.54V45.23l-6.12.89a14.24,14.24,0,0,0-5.7,1.78A3.67,3.67,0,0,0,230.57,51a3.71,3.71,0,0,0,1.75,3.29,7.4,7.4,0,0,0,4.16,1.15A7.55,7.55,0,0,0,242.12,53.23Z"/>
        <path class="cls-2" d="M257,58.43a1.16,1.16,0,0,1-.34-.86V32.79a1.16,1.16,0,0,1,1.2-1.2h2.2a1.09,1.09,0,0,1,1.2,1.2v21.9H271V32.79a1.16,1.16,0,0,1,1.2-1.2h2.09a1.16,1.16,0,0,1,1.2,1.2v21.9h9.72V32.79a1.16,1.16,0,0,1,1.2-1.2h2.2a1.09,1.09,0,0,1,1.2,1.2V57.57a1.16,1.16,0,0,1-1.2,1.2H257.86A1.17,1.17,0,0,1,257,58.43Z"/>
        <path class="cls-2" d="M321.37,31.9a.94.94,0,0,1,.37.73V57.57a1.16,1.16,0,0,1-1.2,1.2h-2.3a1.16,1.16,0,0,1-1.2-1.2V38.43L302.39,58a1.66,1.66,0,0,1-1.36.79h-2.25a1.17,1.17,0,0,1-1.1-1.1V32.79a1.16,1.16,0,0,1,1.2-1.2h2.3a1.16,1.16,0,0,1,1.2,1.2V51.92L317,32.37a1.66,1.66,0,0,1,1.36-.78h2.2A1.19,1.19,0,0,1,321.37,31.9Z"/>
        <path class="cls-2" d="M94.43,121.16a1.17,1.17,0,0,1-.34-.86V86.16a1.3,1.3,0,0,1,.31-.91,1.15,1.15,0,0,1,.89-.34h2.46a1.32,1.32,0,0,1,1.31.78l11.13,21.38,11.24-21.38a1.34,1.34,0,0,1,1.25-.78h2.46a1.15,1.15,0,0,1,.89.34,1.3,1.3,0,0,1,.31.91v34.13a1.16,1.16,0,0,1-1.2,1.2h-2.4a1.08,1.08,0,0,1-.84-.34,1.22,1.22,0,0,1-.31-.86v-26l-8.94,17.3a1.74,1.74,0,0,1-1.67,1.1H109.4a1.81,1.81,0,0,1-1.67-1.1l-8.89-17.3v26a1.16,1.16,0,0,1-1.2,1.2H95.29A1.17,1.17,0,0,1,94.43,121.16Z"/>
        <path class="cls-2" d="M137,118.78a12.68,12.68,0,0,1-3.32-8.62l-.05-2.25.05-2.25A12.56,12.56,0,0,1,137.08,97q3.16-3.24,8.81-3.24T154.7,97a12.57,12.57,0,0,1,3.37,8.63q.1,1.15.1,2.25t-.1,2.25a12.69,12.69,0,0,1-3.32,8.63q-3.11,3.24-8.86,3.24T137,118.78Zm14.17-2.8a9.21,9.21,0,0,0,2.12-6.09q.05-.52.05-2t-.05-2a9.21,9.21,0,0,0-2.12-6.09,7.71,7.71,0,0,0-10.61,0,9.21,9.21,0,0,0-2.12,6.09l-.05,2,.05,2a9.21,9.21,0,0,0,2.12,6.09,7.71,7.71,0,0,0,10.61,0Z"/>
        <path class="cls-2" d="M192.1,94.63a1,1,0,0,1,.31.68v25a1.08,1.08,0,0,1-1.15,1.15h-2.35a1.08,1.08,0,0,1-1.15-1.15V102.84L181,115.75a4.19,4.19,0,0,1-.71,1.07,1.38,1.38,0,0,1-1,.34h-1.31a1.38,1.38,0,0,1-1-.34,4.14,4.14,0,0,1-.71-1.07l-6.79-12.6v17.2a1.08,1.08,0,0,1-1.15,1.15h-2.35a1.08,1.08,0,0,1-1.15-1.15v-25a1,1,0,0,1,.31-.68,1,1,0,0,1,.73-.31h2.51a1.34,1.34,0,0,1,1.25.84l9,16.78,9-16.78a1.34,1.34,0,0,1,1.25-.84h2.51A1,1,0,0,1,192.1,94.63Z"/>
        <path class="cls-2" d="M204,120.76a9.17,9.17,0,0,1-3.74-3.16,7.9,7.9,0,0,1-1.33-3.89v-.11a.89.89,0,0,1,.34-.71,1.14,1.14,0,0,1,.76-.29h2.14a1.13,1.13,0,0,1,.76.21,2.45,2.45,0,0,1,.5.78,6.81,6.81,0,0,0,2.61,3.5,7.85,7.85,0,0,0,4.23,1,7,7,0,0,0,5.28-2q1.93-2,2-6.14v-.26H207.41a1.08,1.08,0,0,1-.84-.34,1.16,1.16,0,0,1-.31-.81v-1.36a1.08,1.08,0,0,1,1.15-1.15h10.19v-.31q-.11-4.08-2.07-6.09a7,7,0,0,0-5.25-2,7.87,7.87,0,0,0-4.23,1,6.82,6.82,0,0,0-2.61,3.5,2.89,2.89,0,0,1-.5.81,1.13,1.13,0,0,1-.81.24h-2a1.11,1.11,0,0,1-.81-.34.94.94,0,0,1-.29-.81,7.93,7.93,0,0,1,1.33-3.89A9.17,9.17,0,0,1,204.07,95a13.84,13.84,0,0,1,6.22-1.25q5.7,0,8.81,3.14t3.32,8.83q.05.52.05,2.14t-.05,2.14q-.21,5.7-3.29,8.83T210.29,122A14,14,0,0,1,204,120.76Z"/>
        <path class="cls-2" d="M229.5,121.16a1.16,1.16,0,0,1-.34-.86V95.52a1.16,1.16,0,0,1,1.2-1.2h2.3a1.16,1.16,0,0,1,1.2,1.2v10.09h14.43V95.52a1.16,1.16,0,0,1,1.2-1.2h2.3a1.09,1.09,0,0,1,1.2,1.2v24.78a1.16,1.16,0,0,1-1.2,1.2h-2.3a1.16,1.16,0,0,1-1.2-1.2V109.63H233.86v10.66a1.16,1.16,0,0,1-1.2,1.2h-2.3A1.17,1.17,0,0,1,229.5,121.16Z"/>
        <path class="cls-2" d="M268.34,121.16a1.17,1.17,0,0,1-.34-.86v-22h-9.15A1.22,1.22,0,0,1,258,98a1.08,1.08,0,0,1-.34-.84V95.52a1.16,1.16,0,0,1,1.2-1.2H281.8a1.09,1.09,0,0,1,.84.34,1.22,1.22,0,0,1,.31.86v1.67a1.08,1.08,0,0,1-1.15,1.15h-9.15v22a1.16,1.16,0,0,1-1.2,1.2H269.2A1.17,1.17,0,0,1,268.34,121.16Z"/>
        <path class="cls-2" d="M287.94,121.16a1.16,1.16,0,0,1-.34-.86V95.52a1.16,1.16,0,0,1,1.2-1.2h2.3a1.16,1.16,0,0,1,1.2,1.2v7.68h5.49q5.12,0,7.66,2.46a9.1,9.1,0,0,1,2.54,6.85q0,4.6-2.69,6.8t-8.18,2.2H288.8A1.17,1.17,0,0,1,287.94,121.16Zm9.43-3.48a7.53,7.53,0,0,0,4.71-1.18q1.46-1.18,1.46-4a5.37,5.37,0,0,0-1.46-4.13q-1.46-1.36-4.71-1.36h-5.12v10.66Zm14.72,3.48a1.16,1.16,0,0,1-.34-.86V95.52a1.16,1.16,0,0,1,1.2-1.2h2.3a1.16,1.16,0,0,1,1.2,1.2v24.78a1.16,1.16,0,0,1-1.2,1.2H313A1.17,1.17,0,0,1,312.09,121.16Z"/>
        <rect class="cls-2" x="66.68" y="72.75" width="276.55" height="4.5" rx="1.98" ry="1.98"/>
    </g>
</svg>